<?xml version="1.0" encoding="UTF-8" standalone="no"?>
<svg
   xmlns:dc="http://purl.org/dc/elements/1.1/"
   xmlns:cc="http://creativecommons.org/ns#"
   xmlns:rdf="http://www.w3.org/1999/02/22-rdf-syntax-ns#"
   xmlns:svg="http://www.w3.org/2000/svg"
   xmlns="http://www.w3.org/2000/svg"
   xmlns:sodipodi="http://sodipodi.sourceforge.net/DTD/sodipodi-0.dtd"
   xmlns:inkscape="http://www.inkscape.org/namespaces/inkscape"
   viewBox="0 -256 1792 1792"
   id="svg3013"
   version="1.1"
   inkscape:version="0.48.3.1 r9886"
   width="100%"
   height="100%"
   sodipodi:docname="quote_left_font_awesome.svg">
  <metadata
     id="metadata3023">
    <rdf:RDF>
      <cc:Work
         rdf:about="">
        <dc:format>image/svg+xml</dc:format>
        <dc:type
           rdf:resource="http://purl.org/dc/dcmitype/StillImage" />
      </cc:Work>
    </rdf:RDF>
  </metadata>
  <defs
     id="defs3021" />
  <sodipodi:namedview
     pagecolor="#ffffff"
     bordercolor="#666666"
     borderopacity="1"
     objecttolerance="10"
     gridtolerance="10"
     guidetolerance="10"
     inkscape:pageopacity="0"
     inkscape:pageshadow="2"
     inkscape:window-width="640"
     inkscape:window-height="480"
     id="namedview3019"
     showgrid="false"
     inkscape:zoom="0.13169643"
     inkscape:cx="896"
     inkscape:cy="896"
     inkscape:window-x="0"
     inkscape:window-y="25"
     inkscape:window-maximized="0"
     inkscape:current-layer="svg3013" />
  <g
     transform="matrix(1,0,0,-1,68.338983,1368.9492)"
     id="g3015">
    <path
       d="M 768,576 V 192 Q 768,112 712,56 656,0 576,0 H 192 Q 112,0 56,56 0,112 0,192 V 896 Q 0,1000 40.5,1094.5 81,1189 150,1258 219,1327 313.5,1367.5 408,1408 512,1408 h 64 q 26,0 45,-19 19,-19 19,-45 v -128 q 0,-26 -19,-45 -19,-19 -45,-19 h -64 q -106,0 -181,-75 -75,-75 -75,-181 v -32 q 0,-40 28,-68 28,-28 68,-28 h 224 q 80,0 136,-56 56,-56 56,-136 z m 896,0 V 192 Q 1664,112 1608,56 1552,0 1472,0 h -384 q -80,0 -136,56 -56,56 -56,136 v 704 q 0,104 40.5,198.5 40.5,94.5 109.5,163.5 69,69 163.5,109.5 94.5,40.5 198.5,40.5 h 64 q 26,0 45,-19 19,-19 19,-45 v -128 q 0,-26 -19,-45 -19,-19 -45,-19 h -64 q -106,0 -181,-75 -75,-75 -75,-181 v -32 q 0,-40 28,-68 28,-28 68,-28 h 224 q 80,0 136,-56 56,-56 56,-136 z"
       id="path3017"
       inkscape:connector-curvature="0"
       style="fill:currentColor" />
  </g>
</svg>
